# xmcd
#
# Track frame offsets: 
#        150
#        18277
#        35939
#        38144
#        54212
#        74519
#        84156
#        89675
#        98109
#        114136
#        122020
#        132895
#        141759
#        149831
#        158420
#        161722
#        172597
#        200627
#        205163
#        220796
#
# Disc length: 3132 seconds
#
# Revision: 0
# Processed by: cddbd v1.5.2PL0 Copyright (c) Steve Scherf et al.
# Submitted via: ExactAudioCopy v0.99pb5
#
DISCID=140c3a14
DTITLE=Micky Dolenz and Davy Jones  - Live 1997 - Disc 2 (The Arrow Loun
DTITLE=ge, NJ - July 29, 1977)
DYEAR=1900
DGENRE=
TTITLE0=Sergeant Fury
TTITLE1=Can She Do It Like She Dances?
TTITLE2=Bye, Bye Blackbird
TTITLE3=How Would You Like It?
TTITLE4=James Cagney Tribute
TTITLE5=Do "The Cagney"
TTITLE6=(Theme from) The Monkees
TTITLE7=I'm A Believer
TTITLE8=I Wanna Be Free
TTITLE9=Daydream Believer
TTITLE10=(I'm Not Your) Steppin' Stone
TTITLE11=Chat
TTITLE12=Piece Of Mind
TTITLE13=Papa Gene's Blues
TTITLE14=Band Introductions
TTITLE15=Summertime Fever
TTITLE16=That's Rock 'N' Roll (finale)
TTITLE17=Introduction
TTITLE18=The King Of Country Town
TTITLE19=You And I
EXTD=
EXTT0=
EXTT1=
EXTT2=
EXTT3=
EXTT4=
EXTT5=
EXTT6=
EXTT7=
EXTT8=
EXTT9=
EXTT10=
EXTT11=
EXTT12=
EXTT13=
EXTT14=
EXTT15=
EXTT16=
EXTT17=
EXTT18=
EXTT19=
PLAYORDER=
